<?xml version="1.0" encoding="utf-8"?>
<!-- Generator: Adobe Illustrator 27.1.0, SVG Export Plug-In . SVG Version: 6.00 Build 0)  -->
<svg version="1.1" id="Livello_1" xmlns="http://www.w3.org/2000/svg" xmlns:xlink="http://www.w3.org/1999/xlink" x="0px" y="0px"
	 viewBox="0 0 396.8 131.5" style="enable-background:new 0 0 396.8 131.5;" xml:space="preserve">
<style type="text/css">
	.st0{fill:none;stroke:#050000;stroke-miterlimit:10;}
	.st1{fill:#070707;}
	.st2{fill:#FFFFFF;}
</style>
<g id="frames_tracciato">
	<path class="st0" d="M178.2,71l-2.2,5.9c-6.4-1.8-7.6-0.1-7.9,1.6c-0.2,1.2-0.3,2.5-0.3,2.5h9v6.5h-9v17.1h-8.2V87.5h-5.8V81h5.8
		c0,0-0.2-7,4-9.7s11-1.3,11-1.3S176.7,70.3,178.2,71L178.2,71z"/>
	<path class="st0" d="M187.7,104.6h-8.2V81h8.2v2.1c0,0,2.1-2.8,7.6-2.8c0,0,5.6,0,7.9,1.8l-3.5,5.9c0,0-12-5-12,5.1
		S187.7,104.6,187.7,104.6z"/>
	<path class="st0" d="M231.5,104.6h-8.2v-2c0,0-2.2,2.6-7.8,2.5s-7.2-0.9-7.2-0.9s-4.2-1.1-5.2-5.1s1.1-6.3,1.1-6.3s1.6-2.9,8.2-3.7
		c2.7-0.3,5-0.3,6.7-0.2c2.6,0,4,0.2,4,0.2s0.1-0.9-0.8-1.5c-0.3-0.3-0.9-0.5-1.6-0.6c0,0-5.9-1.1-13.1,1.4l-3-5.4
		c0,0,4.8-2.4,12.2-2.5c0,0,7.7-0.4,11.2,2.1c1.1,0.8,2.4,2.4,2.8,4.2c0.2,0.9,0.3,1.8,0.4,2.7c0.1,0.8,0,1.6,0,2.3c0,2,0,3.5,0,3.5
		V104.6L231.5,104.6z"/>
	<path class="st0" d="M224.3,93.1v2.1c0,0,0.2,2.5-2.8,3.6s-7,0.7-7,0.7s-3.6-0.2-4.2-2.1s1-3.1,1-3.1s0.7-0.9,4.6-1.3
		S224.3,93.1,224.3,93.1L224.3,93.1z"/>
	<path class="st0" d="M243.1,104.6h-8.2l0-23.6h8.2v2c0,0,2.2-3.2,7.4-2.6c1.7,0.2,3.1,0.6,4.2,1.2c2.2,1.2,3.2,3,3.2,3
		s1.8-3.6,6-4.1s6.6,0.7,6.6,0.7s5.8,1.5,5.8,10.6v12.8H268V93.1c0,0,0.1-1.3-0.1-2.6c-0.1-0.7-0.2-1.5-0.6-2.1
		c-0.6-0.9-1.6-1.5-3.1-1.5c-1.4,0-2.5,0.2-3.1,0.9c-1.5,1.5-1.3,4.3-1.3,4.3l0,12.6h-8.2l0-11.7c0,0,0-1.1-0.1-2.3
		c-0.1-0.9-0.3-1.9-0.9-2.7c-0.6-0.7-1.6-1.2-3-1.1c-2.2,0-2.9,0.6-3.4,1.4c-0.7,1-0.8,2.3-0.8,3.3L243.1,104.6L243.1,104.6z"/>
	<path class="st0" d="M287.3,95.9l21.4,0c0,0,0.6-7.1-2.7-10.8c-3.2-3.7-7-4.3-7-4.3s-6.6-1.8-13.2,0.9s-7,9-7,9s-1.3,7.4,4.2,11.4
		s14.1,3,14.1,3s6.9-0.4,10.2-3.2l-3.8-5.1c0,0-1.8,0.9-4.3,1.5s-5.8,0.8-8.3,0.2c-1.5-0.3-2.6-0.9-3.3-2
		C287.5,96.4,287.4,96.1,287.3,95.9L287.3,95.9z"/>
	<path class="st0" d="M286.2,91.3h15.4c0,0,0.1-0.5-0.1-1.3c-0.2-0.9-0.8-2-2.2-2.9c-1.1-0.8-2.9-1.4-5.4-1.5
		c-2.1,0-3.7,0.5-4.8,1.1c-1.7,0.9-2.4,2.2-2.7,3.1C286.2,90.7,286.2,91.3,286.2,91.3z"/>
	<path class="st0" d="M313.6,96.8l-3.8,5.5c0,0,2.1,1.8,7.2,2.5s9.6,0.4,9.6,0.4s5-0.1,7.6-1.8s3-3.3,3-3.3s0.8-1.9,0-4.5
		s-4-3.8-4-3.8s-2.3-1.1-7.3-2.1s-6.1-1.1-6.6-1.8s1.6-0.9,1.6-0.9s6.1-0.8,11.9,1.4l3.8-5.5c0,0-2.6-1.7-8.9-2.4
		s-10.6,0.6-10.6,0.6s-4.3,0.8-5.7,4.5c-0.3,0.8-0.3,2-0.3,2.7c0,2.5,1.9,4,1.9,4s1.7,1.7,6.5,2.8s5.4,1.2,5.4,1.2s1.8,0.4,3.1,0.7
		c0.6,0.2,1,0.4,1.2,0.5c0,0,0.4,0.2,0.1,0.4s-0.6,0.3-0.6,0.3s-0.9,0.3-2,0.4s-1.8,0.1-1.8,0.1s-3.5,0.2-6.9-0.5
		S313.6,96.8,313.6,96.8L313.6,96.8z"/>
</g>
<g id="tracciato_and">
	<path class="st1" d="M82.6,101.5v3.1h6.7V90.3c0,0,0.2-3.2-0.9-5.5s-3.6-3.3-3.6-3.3s-2.1-1.2-7.3-1.1c-3.3,0-6.1,0.4-8.3,1.1
		c-1.3,0.4-2.4,0.8-3.4,1.3l2.3,4.8c0,0,3.2-1.3,7.2-1.5c3.9-0.2,5.1,0.2,5.1,0.2s2.4,0.7,2.3,3.3c0,0-4.4-0.4-7.9-0.2
		s-5.1,0.8-5.1,0.8s-4.1,0.9-5.4,4.5s0.3,6.5,0.3,6.5s1.4,2.8,5.7,3.7s7.5,0.1,7.5,0.1S81,104.4,82.6,101.5L82.6,101.5z"/>
	<path class="st2" d="M82.6,93.6v1.9c0,0,0.1,2-2.2,3s-5.3,0.8-5.3,0.8s-3.6-0.1-4.3-1.3s-0.2-2.2-0.2-2.2s0.2-1.5,3.3-2
		S82.6,93.6,82.6,93.6z"/>
	<path class="st1" d="M99.9,104.6h-6.7V81h6.7v3.2c0,0,1.8-4.4,9-3.8c7.2,0.5,9,5.6,9,5.6s1.4,2.2,1.4,8.4s0,10.2,0,10.2h-6.7V93.5
		c0,0,0.9-7.4-6.3-7.5c-5.3-0.1-6.2,4.2-6.3,6.6c-0.1,0.9-0.1,1.7-0.1,1.7L99.9,104.6L99.9,104.6z"/>
	<path class="st1" d="M145.4,100.8v3.8h6.7V69.9h-6.7v14.9c0,0-2.3-4.5-8.9-4.5c-6.7,0-9.4,3.3-9.4,3.3s-3.2,2.5-3.4,8.7
		s3.3,9.3,3.3,9.3s3.1,3.6,9.7,3.5S145.4,100.8,145.4,100.8L145.4,100.8z"/>
	<path class="st2" d="M136.2,86.2c0,0-3.8,0.1-5.4,3.6s0.4,6.7,0.4,6.7s1.3,2.5,5,2.8s5.5-0.6,5.5-0.6s3.1-1.1,3.5-4.4
		s-0.4-4.4-0.4-4.4S143.7,85.3,136.2,86.2L136.2,86.2z"/>
</g>
<g id="tracciato_sunglasses">
	<polygon id="N" points="94.2,59.4 94.2,25.8 103.8,25.8 121.5,50.3 121.5,25.8 128.9,25.8 128.9,59.4 119.5,59.4 101.6,35.2 
		101.7,59.4 	"/>
	<polygon id="L" points="171.4,59.4 171.4,25.9 178.8,25.9 178.8,52.7 201.1,52.7 201.1,59.4 	"/>
	<polygon id="A" points="243.7,59.4 226.1,25.9 219.8,25.9 202.2,59.4 210.3,59.4 213.7,53 232.2,52.9 235.6,59.4 	"/>
	<polygon id="S" class="st2" points="222.9,35.3 217.2,46.4 228.8,46.4 	"/>
	<polygon id="E" points="345.4,25.8 345.4,32.6 321,32.6 321,39.2 344.4,39.2 344.4,45.8 320.9,45.8 320.9,52.7 345.6,52.7 
		345.6,59.5 313.3,59.5 313.3,25.8 	"/>
	<path class="st2" d="M20.9,151L20.9,151c-0.3,0.2-0.4,0.5-0.5,0.8c-0.2,0.3-0.2,0.6-0.2,1c0,0.3,0.1,0.7,0.2,1
		c0.1,0.3,0.3,0.6,0.5,0.8l0.5,0.4c0.4,0.2,0.8,0.3,1.3,0.3l0.7-0.1c0.4-0.1,0.8-0.3,1.1-0.6l0,0c0.2-0.2,0.4-0.5,0.5-0.8
		c0.2-0.3,0.2-0.6,0.2-1c0-0.3-0.1-0.7-0.2-1c-0.1-0.3-0.3-0.6-0.5-0.8l-0.5-0.4c-0.4-0.2-0.8-0.3-1.3-0.3l-0.7,0.1
		C21.6,150.5,21.2,150.7,20.9,151C20.9,151,20.9,151,20.9,151z"/>
	<path class="st2" d="M21.4,150.6c0,0-0.1,0-0.2,0.1c-0.1,0.1-0.2,0.1-0.3,0.2c-0.1,0.1-0.2,0.1-0.3,0.2c-0.1,0.2-0.3,0.3-0.4,0.5
		l-0.2,0.6c-0.1,0.2-0.1,0.4-0.1,0.7c0,0.5,0.1,0.8,0.3,1.3l-0.2-0.6l0,0c0.1-0.6,0.2-1.3,0.2-1.9l0,0c0.1-0.2,0.3-0.3,0.4-0.5l0,0
		c0.2-0.1,0.3-0.3,0.5-0.4l0,0c0.2-0.1,0.4-0.2,0.6-0.2c0,0-0.1,0-0.1,0c-0.2,0.1-0.5,0.2-0.7,0.3c-0.4,0.2-0.7,0.6-0.9,0.9
		c-0.1,0.2-0.2,0.4-0.3,0.7l0.2-0.6l0,0c0.1-0.2,0.3-0.3,0.4-0.5l0,0c0.2-0.1,0.3-0.2,0.5-0.4c0,0,0,0,0,0l0.6-0.2
		c-0.1,0-0.2,0.1-0.2,0.1c-0.3,0.1-0.6,0.2-0.8,0.4c-0.3,0.2-0.5,0.4-0.6,0.7c-0.2,0.3-0.3,0.6-0.3,0.9c-0.1,0.3-0.1,0.7,0,1
		l0.2,0.6c0.2,0.4,0.5,0.7,0.9,0.9l0.6,0.2c0.4,0.1,0.9,0.1,1.3,0c0.1,0,0.1,0,0.2-0.1c0.5-0.1,0.8-0.3,1.2-0.7s0.5-0.7,0.7-1.1
		c0,0,0,0,0,0l-0.2,0.6c0,0,0,0,0,0l-0.4,0.5c0,0,0,0,0,0l-0.5,0.4c0,0,0,0,0,0l-0.6,0.2c0,0,0.1,0,0.1,0c0.5-0.1,0.5-0.2,0.9-0.4
		c0.3-0.2,0.4-0.3,0.7-0.7c0.1-0.2,0.2-0.4,0.2-0.6c0.1-0.3,0.1-0.7,0-1c-0.1-0.5,0-0.4-0.3-0.9l0.2,0.6l0,0c0,0.2,0.1,0.4,0.1,0.7
		l0,0c0,0.2-0.1,0.4-0.1,0.7l0,0c-0.2,0.4-0.4,0.7-0.6,1.1c0,0,0,0,0,0l-0.5,0.4c0,0,0.1-0.1,0.2-0.1c0.3-0.2,0.5-0.4,0.7-0.6
		c0.2-0.2,0.4-0.5,0.5-0.9c0.1-0.3,0.1-0.7,0-1c0-0.3-0.1-0.6-0.3-0.9l-0.4-0.5c-0.3-0.3-0.7-0.5-1.1-0.6l-0.7-0.1
		C22.2,150.3,21.8,150.4,21.4,150.6L21.4,150.6L21.4,150.6z"/>
	<path class="st2" d="M22.9,155.2c3.2,0,3.2-5,0-5S19.6,155.2,22.9,155.2L22.9,155.2z"/>
	<path class="st2" d="M22.7,155.3c3.2,0,3.2-5,0-5S19.5,155.3,22.7,155.3L22.7,155.3z"/>
	<path class="st2" d="M22.5,155.5c3.2,0,3.2-5,0-5S19.3,155.5,22.5,155.5L22.5,155.5z"/>
	<path class="st2" d="M18.5,156.4c3.2,0,3.2-5,0-5S15.3,156.4,18.5,156.4L18.5,156.4z"/>
	<path class="st2" d="M18.6,156.4c3.2,0,3.2-5,0-5S15.4,156.4,18.6,156.4L18.6,156.4z"/>
	<path class="st2" d="M18.3,156.4c3.2,0,3.2-5,0-5S15.1,156.4,18.3,156.4L18.3,156.4z"/>
	<path class="st2" d="M18,156.4c3.2,0,3.2-5,0-5S14.7,156.4,18,156.4L18,156.4z"/>
	<path class="st2" d="M18,156.5c3.2,0,3.2-5,0-5S14.8,156.5,18,156.5L18,156.5z"/>
	<path d="M152.5,40.4h16v16.8c0,0-5,4.5-16,4c-11-0.5-15.2-4.3-15.2-4.3s-5.3-3-6.6-11.1s4-13.5,4-13.5s3.7-4.3,10.4-5.8
		C151.9,25,158,26,158,26s6.9,1,10.1,3.8l-3.8,5.5c0,0-6.1-3.2-12.1-2.8c-6.1,0.4-7.9,1.8-7.9,1.8s-5.1,2.4-5.5,8.1S142,51,142,51
		s2.7,2.8,8.6,3.3c5.9,0.5,10.9-1.1,10.9-1.1l-0.1-6.2l-8.8,0V40.4L152.5,40.4z"/>
	<path d="M76.2,53.2c0,0-6.1,0.9-9.9-1.2c-3.7-2-3.5-7.7-3.5-7.7l0-18.7h-7.8v16.5c0,0-0.2,7.7,2.2,11.2s5.7,5,5.7,5
		s4.4,2.1,11.6,1.8s10.8-2.9,10.8-2.9s4.9-2.8,5.6-10.4c0,0,0.2-1.7,0.2-5.1s0-16.1,0-16.1h-7.8v18.6C83.3,44.2,83.9,52.6,76.2,53.2
		z"/>
	<path d="M36.8,54.3c-0.8,0-1.5,0-2.3,0c-1.5-0.1-3-0.2-4.2-0.5c-4.9-0.8-7.6-2.2-7.6-2.2l-3.8,5.5c0,0,4.6,3.2,13.5,3.8
		S45.5,60,45.5,60s6.2-1.3,7.8-6.3c1.6-5-1.2-8-1.2-8s-1.4-2.8-10-4.8c-8.5-2.1-12.3-2-13.7-4.2s1.7-3.4,1.7-3.4s1.8-1,7.3-0.8
		s10.2,1.5,11.4,2.1l3.9-5.5c0,0-3.9-2.7-12.5-3.3c-8.6-0.6-13,1.1-13,1.1s-4,1.1-6,4.7s-0.5,7.2-0.5,7.2s1,3.4,5.9,5.3
		c4.8,1.8,7.1,2.2,7.1,2.2l6.9,1.4c0,0,5,0.8,5.2,2.9c0.2,3-4.2,3.4-4.2,3.4s-0.6,0.1-1.3,0.2C39.1,54.3,37.6,54.3,36.8,54.3
		L36.8,54.3z"/>
	<path d="M261.4,54.3c-0.8,0-1.5,0-2.2,0c-1.5-0.1-2.9-0.2-4.2-0.5c-4.8-0.8-7.6-2.2-7.6-2.2l-3.8,5.5c0,0,4.5,3.2,13.4,3.8
		s13.1-0.9,13.1-0.9s6.1-1.3,7.7-6.3c1.6-5-1.2-8-1.2-8s-1.4-2.8-9.9-4.8c-8.5-2.1-12.2-2-13.6-4.2s1.7-3.4,1.7-3.4s1.8-1,7.2-0.8
		s10.1,1.5,11.3,2.1l3.9-5.5c0,0-3.8-2.7-12.4-3.3c-8.6-0.6-13,1.1-13,1.1s-4,1.1-5.9,4.7c-2,3.6-0.5,7.2-0.5,7.2s1,3.4,5.8,5.3
		c4.8,1.8,7.1,2.2,7.1,2.2l6.9,1.4c0,0,5,0.8,5.1,2.9c0.2,3-4.2,3.4-4.2,3.4s-0.6,0.1-1.3,0.2C263.7,54.2,262.2,54.3,261.4,54.3
		L261.4,54.3z"/>
	<path d="M295.8,54.4c-0.8,0-1.5,0-2.2,0c-1.5-0.1-2.9-0.2-4.2-0.5c-4.8-0.8-7.6-2.2-7.6-2.2l-3.8,5.5c0,0,4.5,3.2,13.4,3.8
		s13.1-0.9,13.1-0.9s6.1-1.3,7.7-6.3c1.6-5-1.2-8-1.2-8s-1.4-2.8-9.9-4.8c-8.5-2.1-12.2-2-13.6-4.2s1.7-3.4,1.7-3.4s1.8-1,7.2-0.8
		s10.1,1.5,11.3,2.1l3.9-5.5c0,0-3.8-2.7-12.4-3.3c-8.6-0.6-13,1.1-13,1.1s-4,1.1-5.9,4.7s-0.5,7.2-0.5,7.2s1,3.4,5.8,5.3
		c4.8,1.8,7.1,2.2,7.1,2.2l6.9,1.4c0,0,5,0.8,5.1,2.9c0.2,3-4.2,3.4-4.2,3.4s-0.6,0.1-1.3,0.2C298.1,54.3,296.6,54.4,295.8,54.4
		L295.8,54.4z"/>
	<path d="M364.9,53.7c-0.8,0-1.5,0-2.2,0c-1.5-0.1-2.9-0.2-4.2-0.5c-4.8-0.8-7.6-2.2-7.6-2.2l-3.8,5.5c0,0,4.5,3.2,13.4,3.8
		s13.1-0.9,13.1-0.9s6.1-1.3,7.7-6.3c1.6-5-1.2-8-1.2-8s-1.4-2.8-9.9-4.8c-8.5-2.1-12.2-2-13.6-4.2s1.7-3.4,1.7-3.4s1.8-0.9,7.2-0.8
		c5.5,0.1,10.1,1.5,11.3,2.1l3.9-5.5c0,0-3.8-2.7-12.4-3.3c-8.6-0.6-13,1.1-13,1.1s-4,1.1-5.9,4.7s-0.5,7.2-0.5,7.2s1,3.4,5.8,5.3
		c4.8,1.8,7.1,2.2,7.1,2.2l6.9,1.4c0,0,5,0.8,5.1,2.9c0.2,3-4.2,3.4-4.2,3.4s-0.6,0.1-1.3,0.2C367.3,53.7,365.8,53.8,364.9,53.7
		L364.9,53.7z"/>
</g>
</svg>
